<?xml version="1.0" standalone="no"?>
<!DOCTYPE svg PUBLIC "-//W3C//DTD SVG 20010904//EN"
 "http://www.w3.org/TR/2001/REC-SVG-20010904/DTD/svg10.dtd">
<svg version="1.0" xmlns="http://www.w3.org/2000/svg"
 width="16.000000pt" height="16.000000pt" viewBox="0 0 16.000000 16.000000"
 preserveAspectRatio="xMidYMid meet">
<metadata>
Created by potrace 1.11, written by Peter Selinger 2001-2013
</metadata>
<g transform="translate(0.000000,16.000000) scale(0.006154,-0.006154)"
fill="#000000" stroke="none">
<path d="M1096 2588 c4 -12 1 -16 -13 -14 -10 2 -21 -4 -25 -13 -5 -13 -7 -13
-7 3 -1 20 -1 20 -17 0 -15 -19 -16 -19 -10 1 5 18 4 18 -10 -2 -13 -18 -20
-20 -35 -12 -13 7 -19 6 -19 -1 0 -6 -11 -8 -26 -6 -21 4 -25 2 -19 -12 5 -13
4 -14 -6 -5 -10 10 -15 9 -26 -5 -8 -9 -12 -11 -8 -4 10 19 -2 14 -26 -10 -16
-17 -20 -18 -16 -6 4 12 2 15 -9 11 -7 -3 -14 -10 -14 -16 0 -6 -3 -7 -7 -4
-3 4 -12 -2 -20 -12 -9 -13 -20 -17 -35 -13 -17 4 -20 2 -14 -13 5 -15 4 -16
-9 -5 -11 9 -15 9 -15 1 0 -7 -4 -9 -10 -6 -5 3 -10 2 -10 -4 0 -6 -7 -7 -17
-4 -9 4 -14 2 -11 -3 3 -5 0 -15 -8 -22 -8 -7 -14 -10 -14 -6 0 3 -7 1 -15 -6
-8 -7 -15 -9 -15 -4 0 4 -8 -1 -19 -12 -39 -40 -60 -53 -65 -41 -2 7 -5 3 -5
-7 -1 -11 -4 -17 -7 -13 -10 9 -43 -25 -37 -39 3 -9 -2 -12 -16 -9 -11 2 -20
1 -18 -3 3 -9 -40 -52 -53 -52 -9 0 -14 -14 -11 -33 0 -4 -2 -6 -6 -6 -20 3
-34 -2 -28 -11 3 -5 -1 -10 -10 -10 -9 0 -13 -4 -10 -10 3 -5 1 -10 -5 -10 -6
0 -8 -4 -5 -10 3 -5 -1 -10 -10 -10 -9 0 -14 -4 -11 -8 3 -5 -3 -16 -12 -25
-27 -25 -42 -45 -42 -57 0 -5 -3 -10 -7 -10 -5 0 -13 -10 -19 -23 -26 -52 -59
-112 -66 -117 -3 -3 -10 -18 -13 -33 -4 -15 -11 -30 -16 -33 -5 -3 -9 -14 -9
-25 0 -10 -4 -19 -10 -19 -5 0 -9 -3 -8 -7 1 -5 -7 -35 -17 -68 -10 -33 -20
-64 -21 -70 -11 -41 -16 -66 -21 -105 -3 -25 -11 -66 -18 -92 -6 -26 -8 -45
-2 -41 5 3 4 -4 -2 -15 -14 -27 -14 -35 1 -26 10 6 10 4 2 -7 -8 -11 -12 -74
-4 -74 1 0 3 -16 5 -35 6 -57 15 -133 20 -160 3 -14 8 -38 10 -54 3 -16 9 -34
13 -40 3 -6 8 -20 9 -30 5 -27 28 -92 53 -148 11 -26 21 -51 21 -55 0 -5 6
-15 13 -23 7 -8 18 -30 26 -47 7 -18 16 -33 21 -33 5 0 9 -7 9 -15 0 -8 5 -15
11 -15 5 0 8 -4 5 -9 -4 -5 10 -25 29 -45 19 -20 33 -36 30 -36 -5 0 20 -31
64 -79 14 -14 29 -25 33 -23 4 1 8 -5 8 -13 0 -8 5 -15 11 -15 5 0 7 -4 4 -10
-3 -5 1 -10 10 -10 9 0 13 -4 10 -10 -3 -5 -1 -10 5 -10 6 0 18 -7 27 -15 8
-8 19 -12 25 -9 7 4 8 2 4 -4 -4 -7 -1 -12 8 -12 9 0 16 -6 16 -14 0 -7 14
-19 30 -26 17 -7 30 -16 30 -19 0 -4 15 -18 32 -31 18 -13 29 -17 23 -9 -5 8
-2 6 7 -4 10 -11 18 -15 18 -11 0 5 7 0 15 -10 8 -11 15 -14 15 -7 0 7 5 9 10
6 6 -4 7 -11 4 -17 -5 -7 -1 -9 9 -5 21 8 49 -2 41 -14 -3 -5 2 -9 10 -9 8 0
22 -7 30 -16 9 -8 16 -12 16 -8 0 3 7 1 15 -6 12 -10 15 -10 16 1 0 8 4 5 9
-6 5 -11 9 -14 9 -7 1 6 6 12 12 12 5 0 7 -4 4 -10 -5 -9 15 -15 38 -11 4 0 7
-4 7 -11 0 -6 3 -8 7 -5 3 4 17 0 31 -9 13 -9 21 -11 18 -5 -8 13 21 4 43 -13
11 -8 13 -8 7 2 -8 14 28 12 41 -3 5 -4 1 -5 -7 0 -8 5 -12 4 -7 0 13 -15 49
-17 41 -3 -5 8 -1 7 10 -2 10 -8 32 -13 48 -11 22 2 28 -1 23 -10 -6 -8 -4
-10 6 -4 18 12 49 14 49 3 0 -4 5 -8 11 -8 5 0 7 5 4 10 -3 6 -1 10 4 10 6 0
11 -5 11 -11 0 -8 6 -7 17 2 15 12 16 12 9 -6 -6 -16 -5 -18 5 -8 15 15 33 17
25 4 -4 -5 3 -7 14 -4 11 3 20 10 20 17 0 6 5 4 10 -4 6 -9 13 -11 18 -5 13
19 35 17 28 -2 -5 -16 -5 -16 9 1 11 14 22 17 45 12 21 -4 29 -2 24 5 -5 8 -2
9 12 1 14 -8 21 -6 32 6 7 10 11 12 8 5 -4 -7 1 -11 14 -10 13 1 19 6 15 16
-4 11 -3 11 9 2 9 -7 17 -8 20 -2 3 5 14 8 24 6 9 -1 23 2 30 8 8 6 12 6 12
-2 0 -6 5 -11 11 -11 5 0 7 4 4 10 -3 6 -1 10 5 10 6 0 9 4 6 8 -3 5 1 9 9 9
8 0 11 -5 8 -11 -4 -6 0 -5 9 1 8 7 19 9 23 5 5 -4 5 2 1 12 -5 15 -4 17 8 7
10 -9 16 -9 21 -1 4 6 13 9 21 6 8 -3 14 1 14 11 0 11 3 13 13 5 8 -7 18 -7
27 -2 8 5 18 6 24 3 5 -3 6 -1 2 6 -4 6 -12 8 -18 5 -7 -5 -8 -2 -4 5 5 7 11
10 14 7 3 -3 12 0 20 7 13 10 15 9 8 -3 -4 -8 -1 -7 8 4 8 10 20 15 25 11 6
-3 14 1 17 9 3 9 10 14 14 11 4 -3 11 2 14 11 3 8 10 12 16 9 5 -3 10 -1 10 4
0 6 8 11 18 11 9 0 28 12 42 28 14 15 23 23 20 17 -3 -6 2 -3 12 7 9 10 20 18
25 18 4 0 20 11 35 25 15 14 32 25 38 25 5 0 9 3 8 8 -4 9 45 58 55 54 4 -1 7
8 7 19 0 18 2 20 16 9 8 -8 14 -9 13 -4 -4 21 2 45 9 40 9 -5 48 54 44 67 -1
5 1 7 5 4 10 -5 43 29 36 37 -4 3 -1 6 6 6 8 0 11 6 7 17 -4 10 -4 14 0 10 7
-6 38 35 43 58 1 6 9 17 16 25 13 15 15 19 15 40 0 6 7 10 17 10 9 0 14 3 11
6 -4 3 0 20 7 39 8 18 11 35 8 39 -4 3 -1 6 5 6 10 0 28 55 24 73 -1 4 2 7 7
7 8 0 12 14 25 85 2 11 4 20 5 20 3 0 6 18 17 85 4 25 9 54 11 65 7 35 10 250
4 260 -3 6 -6 19 -7 30 -1 11 -5 40 -9 65 -4 25 -8 53 -9 63 0 9 -3 17 -6 17
-3 0 -7 11 -8 24 -1 14 -20 71 -42 128 -22 57 -40 109 -40 116 0 6 -4 12 -8
12 -5 0 -14 16 -22 35 -8 19 -18 35 -22 35 -5 0 -6 5 -3 10 3 6 2 10 -3 10 -5
0 -15 14 -22 30 -7 17 -15 30 -19 30 -4 0 -15 16 -25 35 -11 19 -23 35 -28 35
-4 0 -8 7 -8 16 0 8 -4 12 -10 9 -5 -3 -10 1 -10 10 0 9 -4 13 -10 10 -5 -3
-10 1 -10 9 0 9 -9 21 -20 28 -11 7 -20 19 -20 26 0 7 -4 10 -10 7 -5 -3 -10
2 -10 11 0 10 -3 15 -6 11 -3 -3 -22 10 -42 29 -65 61 -69 64 -79 64 -6 0 -14
7 -17 16 -3 8 -10 13 -15 10 -5 -3 -12 1 -15 10 -3 8 -10 12 -16 9 -5 -3 -10
-1 -10 4 0 6 -7 11 -15 11 -7 0 -18 6 -22 14 -13 23 -71 48 -76 33 -3 -6 -6
-1 -7 13 -1 14 -4 19 -7 13 -3 -10 -8 -9 -20 3 -9 8 -22 13 -30 10 -9 -4 -11
-2 -7 6 5 8 2 9 -10 5 -9 -4 -15 -3 -13 1 3 4 -2 14 -11 22 -14 13 -15 12 -9
-3 3 -9 2 -17 -3 -17 -6 0 -10 5 -10 12 0 6 -3 9 -6 5 -4 -3 -13 1 -22 9 -12
13 -16 13 -23 2 -7 -11 -9 -11 -9 0 0 8 -5 10 -12 6 -10 -6 -10 -5 -1 7 10 12
8 15 -8 16 -12 1 -17 -3 -13 -10 5 -8 3 -8 -7 1 -7 6 -21 12 -30 12 -9 0 -22
7 -29 15 -9 11 -16 13 -24 5 -13 -13 -29 -13 -21 0 3 6 -1 7 -10 4 -8 -4 -23
0 -32 7 -15 12 -16 12 -9 -5 7 -20 6 -20 -14 -1 -21 19 -64 29 -54 13 4 -5 12
-7 20 -4 7 3 16 2 18 -3 8 -12 -64 -7 -72 5 -11 16 -174 17 -184 2 -6 -10 -8
-10 -8 0 0 6 -4 12 -10 12 -5 0 -7 -6 -4 -13 3 -8 -2 -14 -10 -14 -8 0 -12 5
-10 12 3 6 -6 11 -20 11 -14 0 -22 -5 -19 -11 6 -18 -30 -14 -45 4 -11 14 -11
14 -6 -1z m239 -8 c3 -6 -1 -7 -9 -4 -18 7 -21 14 -7 14 6 0 13 -4 16 -10z
m270 -20 c3 -5 1 -10 -4 -10 -6 0 -11 5 -11 10 0 6 2 10 4 10 3 0 8 -4 11 -10z"/>
</g>
</svg>
